<svg width="20" height="22" viewBox="0 0 20 22" fill="none" xmlns="http://www.w3.org/2000/svg">
<path d="M19.1667 11.7247H0.833333C0.373332 11.7247 0 11.32 0 10.8214C0 10.3227 0.373332 9.91803 0.833333 9.91803H19.1667C19.6267 9.91803 20 10.3227 20 10.8214C20 11.32 19.6267 11.7247 19.1667 11.7247Z" fill="black"/>
<path d="M19.1667 4.79906H0.833333C0.373332 4.79906 0 4.39436 0 3.89571C0 3.39707 0.373332 2.99237 0.833333 2.99237H19.1667C19.6267 2.99237 20 3.39707 20 3.89571C20 4.39436 19.6267 4.79906 19.1667 4.79906Z" fill="black"/>
<path d="M19.1667 18.6502H0.833333C0.373332 18.6502 0 18.2455 0 17.7469C0 17.2482 0.373332 16.8435 0.833333 16.8435H19.1667C19.6267 16.8435 20 17.2482 20 17.7469C20 18.2455 19.6267 18.6502 19.1667 18.6502Z" fill="black"/>
</svg>
