<svg width="11" height="10" viewBox="0 0 11 10" fill="none" xmlns="http://www.w3.org/2000/svg">
    <path d="M3.78878 0.00257492C3.76729 0.00428438 3.70198 0.00941229 3.64269 0.0145407C2.6355 0.100865 1.70823 0.529925 1.03019 1.2248C0.748311 1.51369 0.536045 1.80941 0.36417 2.15386C-0.118798 3.11881 -0.121376 4.22309 0.356436 5.19061C0.799873 6.0889 1.63089 6.79745 2.63722 7.13591C3.13651 7.30428 3.64354 7.37522 4.19097 7.35471C5.42675 7.30856 6.57143 6.73078 7.30018 5.78377C7.6869 5.28206 7.92151 4.7077 8.00487 4.06155C8.02722 3.89232 8.02722 3.4701 8.00573 3.30087C7.93182 2.72138 7.74878 2.22993 7.42909 1.75386C7.20651 1.42138 6.88768 1.08719 6.55425 0.836763C5.93636 0.373515 5.23339 0.10172 4.43761 0.0188141C4.31729 0.00599384 3.87644 -0.00511742 3.78878 0.00257492ZM4.26144 1.10001C4.76503 1.14275 5.248 1.3077 5.64933 1.57437C5.81433 1.68377 5.91659 1.76497 6.04893 1.89146C6.4305 2.25728 6.67714 2.68975 6.78284 3.17693C6.82065 3.35129 6.83354 3.47522 6.8344 3.67266C6.8344 3.86668 6.82581 3.96582 6.79143 4.13847C6.58003 5.21454 5.63558 6.0624 4.45479 6.23591C4.29753 6.25899 4.20729 6.26497 4.01651 6.26582C3.74409 6.26582 3.54042 6.24189 3.28948 6.18035C2.28401 5.93505 1.49511 5.1889 1.26222 4.2624C1.20894 4.04873 1.19089 3.90428 1.19175 3.67693C1.19175 3.22822 1.30948 2.81112 1.54237 2.42822C1.9987 1.67864 2.82456 1.18292 3.75269 1.10087C3.86354 1.09061 4.14886 1.09061 4.26144 1.10001Z"
          fill="#424242"/>
    <path d="M7.62504 6.09828C7.40075 6.40255 7.02176 6.74785 6.71325 6.92905C6.67887 6.94871 6.65051 6.96837 6.65051 6.97178C6.65051 6.97606 7.05184 7.34358 7.54254 7.78888C8.03239 8.23418 8.77919 8.91281 9.20114 9.29572C9.62309 9.67948 9.97114 9.99401 9.97544 9.99572C9.98403 9.99914 11.0007 9.07435 10.9972 9.0658C10.9955 9.06067 7.77543 6.13418 7.6852 6.05554C7.66801 6.04101 7.66629 6.04187 7.62504 6.09828Z"
          fill="#424242"/>
</svg>