<?xml version="1.0" encoding="UTF-8" standalone="no"?>
<!DOCTYPE svg PUBLIC "-//W3C//DTD SVG 1.1//EN" "http://www.w3.org/Graphics/SVG/1.1/DTD/svg11.dtd">
<svg version="1.1" xmlns="http://www.w3.org/2000/svg" xmlns:xlink="http://www.w3.org/1999/xlink" preserveAspectRatio="xMidYMid meet" viewBox="0 0 640 640" width="60" height="60"><defs><path d="M330.67 106.67C330.67 100.27 330.67 49.07 330.67 42.67C330.67 36.77 325.9 32 320 32C314.1 32 309.33 36.77 309.33 42.67C309.33 49.07 309.33 100.27 309.33 106.67C309.33 112.57 314.1 117.33 320 117.33C325.9 117.33 330.67 112.57 330.67 106.67Z" id="b3GSRzAY5J"></path><path d="M565.33 362.67C571.73 362.67 622.93 362.67 629.33 362.67C635.23 362.67 640 357.9 640 352C640 346.1 635.23 341.33 629.33 341.33C622.93 341.33 571.73 341.33 565.33 341.33C559.43 341.33 554.67 346.1 554.67 352C554.67 357.9 559.43 362.67 565.33 362.67Z" id="c26UcfjA2R"></path><path d="M74.67 362.67C80.57 362.67 85.33 357.9 85.33 352C85.33 346.1 80.57 341.33 74.67 341.33C68.27 341.33 17.07 341.33 10.67 341.33C4.77 341.33 0 346.1 0 352C0 357.9 4.77 362.67 10.67 362.67C23.47 362.67 68.27 362.67 74.67 362.67Z" id="buT5DDiIx"></path><path d="M501.02 186.06C507.14 179.94 556.09 130.99 562.21 124.87C566.38 120.7 566.38 113.96 562.21 109.79C558.04 105.62 551.3 105.62 547.13 109.79C541.01 115.91 492.06 164.86 485.94 170.98C481.77 175.15 481.77 181.89 485.94 186.06C488.02 188.15 490.75 189.18 493.48 189.18C496.21 189.18 498.94 188.14 501.02 186.06Z" id="a4lQYDUeui"></path><path d="M146.52 189.18C149.25 189.18 151.98 188.14 154.06 186.06C158.23 181.89 158.23 175.15 154.06 170.98C147.94 164.86 98.99 115.91 92.87 109.79C88.7 105.62 81.96 105.62 77.79 109.79C73.62 113.96 73.62 120.7 77.79 124.87C81.87 128.95 102.27 149.35 138.98 186.06C142.18 188.14 144.7 189.18 146.52 189.18Z" id="g1u8iYOUaY"></path><path d="M545.83 266.81C547.23 266.81 548.65 266.54 550.01 265.96C552.95 264.71 576.52 254.7 579.47 253.45C584.9 251.14 587.42 244.87 585.12 239.46C582.81 234.03 576.5 231.53 571.13 233.8C568.18 235.05 544.61 245.06 541.66 246.31C536.23 248.64 533.71 254.89 536.01 260.31C537.74 264.37 541.69 266.81 545.83 266.81Z" id="nUnhqRnOT"></path><path d="M88.53 269.98C89.85 270.52 91.2 270.76 92.53 270.76C96.76 270.76 100.75 268.25 102.42 264.1C104.63 258.62 101.99 252.42 96.53 250.21C93.57 249.01 69.84 239.42 66.87 238.22C61.41 236.01 55.19 238.66 52.98 244.11C50.77 249.57 53.41 255.78 58.87 257.99C64.8 260.39 85.57 268.79 88.53 269.98Z" id="a3HAmOpKTh"></path><path d="M224.15 136.83C225.55 136.83 226.97 136.57 228.32 135.99C233.75 133.67 236.28 127.41 233.97 121.99C232.72 119.05 222.71 95.48 221.46 92.53C219.15 87.1 212.83 84.6 207.47 86.88C202.04 89.19 199.51 95.46 201.81 100.87C202.65 102.84 206.82 112.66 214.33 130.34C218.11 134.67 221.38 136.83 224.15 136.83Z" id="c5TXxDNZp"></path><path d="M411.9 135.2C416.13 135.2 420.12 132.68 421.79 128.53C422.99 125.57 432.58 101.84 433.78 98.87C435.99 93.4 433.35 87.19 427.89 84.98C422.42 82.78 416.21 85.41 414.01 90.87C412.81 93.84 403.21 117.57 402.02 120.53C399.81 126.01 402.44 132.21 407.9 134.42C409.22 134.95 410.57 135.2 411.9 135.2Z" id="c10VUqdmoI"></path><path d="M530.88 426.67C539.43 402.65 544 377.64 544 352C544 228.49 443.51 128 320 128C196.49 128 96 228.49 96 352C96 377.64 100.57 402.65 109.12 426.67C99.27 426.67 20.51 426.67 10.67 426.67C4.77 426.67 0 431.43 0 437.33C0 443.23 4.77 448 10.67 448C17.79 448 53.42 448 117.56 448L522.43 448C586.57 448 622.21 448 629.33 448C635.23 448 640 443.23 640 437.33C640 431.43 635.23 426.67 629.33 426.67C609.64 426.67 540.73 426.67 530.88 426.67ZM117.33 352C117.33 240.25 208.25 149.33 320 149.33C431.75 149.33 522.67 240.25 522.67 352C522.67 377.72 517.86 402.81 508.35 426.67C483.24 426.67 357.67 426.67 131.65 426.67C122.1 394.03 117.33 369.14 117.33 352Z" id="aA259hqsr"></path><path d="M64 480C58.1 480 53.33 484.77 53.33 490.67C53.33 496.57 58.1 501.33 64 501.33C115.2 501.33 524.8 501.33 576 501.33C581.9 501.33 586.67 496.57 586.67 490.67C586.67 484.77 581.9 480 576 480C473.6 480 115.2 480 64 480Z" id="d3Vf2zBnwM"></path><path d="M117.33 533.33C111.43 533.33 106.67 538.1 106.67 544C106.67 549.9 111.43 554.67 117.33 554.67C157.87 554.67 482.13 554.67 522.67 554.67C528.57 554.67 533.33 549.9 533.33 544C533.33 538.1 528.57 533.33 522.67 533.33C441.6 533.33 157.87 533.33 117.33 533.33Z" id="a3mXEO2PmD"></path><path d="M160 586.67C154.1 586.67 149.33 591.43 149.33 597.33C149.33 603.23 154.1 608 160 608C192 608 448 608 480 608C485.9 608 490.67 603.23 490.67 597.33C490.67 591.43 485.9 586.67 480 586.67C416 586.67 192 586.67 160 586.67Z" id="aLdTiEVWQ"></path><path d="M309.33 388.42L330.67 388.42L330.67 264.83L387.13 321.29L402.21 306.21L320 224L237.79 306.21L252.87 321.29L309.33 264.83L309.33 388.42Z" id="c1OX3KXYeX"></path></defs><g><g><g><use xlink:href="#b3GSRzAY5J" opacity="1" fill="#000000" fill-opacity="1"></use><g><use xlink:href="#b3GSRzAY5J" opacity="1" fill-opacity="0" stroke="#000000" stroke-width="1" stroke-opacity="0"></use></g></g><g><use xlink:href="#c26UcfjA2R" opacity="1" fill="#000000" fill-opacity="1"></use><g><use xlink:href="#c26UcfjA2R" opacity="1" fill-opacity="0" stroke="#000000" stroke-width="1" stroke-opacity="0"></use></g></g><g><use xlink:href="#buT5DDiIx" opacity="1" fill="#000000" fill-opacity="1"></use><g><use xlink:href="#buT5DDiIx" opacity="1" fill-opacity="0" stroke="#000000" stroke-width="1" stroke-opacity="0"></use></g></g><g><use xlink:href="#a4lQYDUeui" opacity="1" fill="#000000" fill-opacity="1"></use><g><use xlink:href="#a4lQYDUeui" opacity="1" fill-opacity="0" stroke="#000000" stroke-width="1" stroke-opacity="0"></use></g></g><g><use xlink:href="#g1u8iYOUaY" opacity="1" fill="#000000" fill-opacity="1"></use><g><use xlink:href="#g1u8iYOUaY" opacity="1" fill-opacity="0" stroke="#000000" stroke-width="1" stroke-opacity="0"></use></g></g><g><use xlink:href="#nUnhqRnOT" opacity="1" fill="#000000" fill-opacity="1"></use><g><use xlink:href="#nUnhqRnOT" opacity="1" fill-opacity="0" stroke="#000000" stroke-width="1" stroke-opacity="0"></use></g></g><g><use xlink:href="#a3HAmOpKTh" opacity="1" fill="#000000" fill-opacity="1"></use><g><use xlink:href="#a3HAmOpKTh" opacity="1" fill-opacity="0" stroke="#000000" stroke-width="1" stroke-opacity="0"></use></g></g><g><use xlink:href="#c5TXxDNZp" opacity="1" fill="#000000" fill-opacity="1"></use><g><use xlink:href="#c5TXxDNZp" opacity="1" fill-opacity="0" stroke="#000000" stroke-width="1" stroke-opacity="0"></use></g></g><g><use xlink:href="#c10VUqdmoI" opacity="1" fill="#000000" fill-opacity="1"></use><g><use xlink:href="#c10VUqdmoI" opacity="1" fill-opacity="0" stroke="#000000" stroke-width="1" stroke-opacity="0"></use></g></g><g><use xlink:href="#aA259hqsr" opacity="1" fill="#000000" fill-opacity="1"></use><g><use xlink:href="#aA259hqsr" opacity="1" fill-opacity="0" stroke="#000000" stroke-width="1" stroke-opacity="0"></use></g></g><g><use xlink:href="#d3Vf2zBnwM" opacity="1" fill="#000000" fill-opacity="1"></use><g><use xlink:href="#d3Vf2zBnwM" opacity="1" fill-opacity="0" stroke="#000000" stroke-width="1" stroke-opacity="0"></use></g></g><g><use xlink:href="#a3mXEO2PmD" opacity="1" fill="#000000" fill-opacity="1"></use><g><use xlink:href="#a3mXEO2PmD" opacity="1" fill-opacity="0" stroke="#000000" stroke-width="1" stroke-opacity="0"></use></g></g><g><use xlink:href="#aLdTiEVWQ" opacity="1" fill="#000000" fill-opacity="1"></use><g><use xlink:href="#aLdTiEVWQ" opacity="1" fill-opacity="0" stroke="#000000" stroke-width="1" stroke-opacity="0"></use></g></g><g><use xlink:href="#c1OX3KXYeX" opacity="1" fill="#000000" fill-opacity="1"></use><g><use xlink:href="#c1OX3KXYeX" opacity="1" fill-opacity="0" stroke="#000000" stroke-width="1" stroke-opacity="0"></use></g></g></g></g></svg>